<svg xmlns="http://www.w3.org/2000/svg" version="1.1" xmlns:xlink="http://www.w3.org/1999/xlink" xmlns:svgjs="http://svgjs.dev/svgjs" width="2000" height="1500" viewBox="0 0 2000 1500"><rect width="2000" height="1500" fill="#191552"></rect><g transform="matrix(0.22482014388489208,0,0,0.22482014388489208,774.53048871294,250.3058103975536)"><svg viewBox="0 0 147 327" data-background-color="#191552" preserveAspectRatio="xMidYMid meet" height="4448" width="2000" xmlns="http://www.w3.org/2000/svg" xmlns:xlink="http://www.w3.org/1999/xlink"><g id="tight-bounds" transform="matrix(1,0,0,1,0.21229638605592527,-0.10000000000002274)"><svg viewBox="0 0 146.57540722788818 327.2" height="327.2" width="146.57540722788818"><g><svg viewBox="0 0 302.77521126760564 675.8845225156665" height="327.2" width="146.57540722788818"><g transform="matrix(1,0,0,1,0,348.68452251566646)"><svg viewBox="0 0 302.77521126760564 327.2" height="327.2" width="302.77521126760564"><g id="textblocktransform"><svg viewBox="0 0 302.77521126760564 327.2" height="327.2" width="302.77521126760564" id="textblock"><g><svg viewBox="0 0 302.77521126760564 327.2" height="327.2" width="302.77521126760564"><g transform="matrix(1,0,0,1,0,0)"><svg width="302.77521126760564" viewBox="0.5 -35.5 32.85 35.5" height="327.2" data-palette-color="url(#c4bdea20-8614-4c45-9dc4-f1b0f1ebdc52)"></svg></g></svg></g></svg></g></svg></g><g transform="matrix(1,0,0,1,57.83006535211268,0)"><svg viewBox="0 0 187.11508056338027 322.50852251566647" height="322.50852251566647" width="187.11508056338027"><g><svg xmlns="http://www.w3.org/2000/svg" xml:space="preserve" viewBox="21.679106830508623 1 56.85827385947761 98" x="0" y="0" height="322.50852251566647" width="187.11508056338027" class="icon-icon-0" data-fill-palette-color="accent" id="icon-0"></svg></g></svg></g><g></g></svg></g><defs></defs><mask id="4d3c5a5d-936d-4a82-88fb-dd62e71f78e1"><g id="SvgjsG5246"><svg viewBox="0 0 146.57540722788818 327.2" height="327.2" width="146.57540722788818"><g><svg viewBox="0 0 302.77521126760564 675.8845225156665" height="327.2" width="146.57540722788818"><g transform="matrix(1,0,0,1,0,348.68452251566646)"><svg viewBox="0 0 302.77521126760564 327.2" height="327.2" width="302.77521126760564"><g id="SvgjsG5245"><svg viewBox="0 0 302.77521126760564 327.2" height="327.2" width="302.77521126760564" id="SvgjsSvg5244"><g><svg viewBox="0 0 302.77521126760564 327.2" height="327.2" width="302.77521126760564"><g transform="matrix(1,0,0,1,0,0)"><svg width="302.77521126760564" viewBox="0.5 -35.5 32.85 35.5" height="327.2" data-palette-color="url(#c4bdea20-8614-4c45-9dc4-f1b0f1ebdc52)"><path d="M0.5 0L15.05-35.5 18.85-35.5 33.35 0 28.55 0 24.35-10.4 9.45-10.4 5.3 0 0.5 0ZM10.35-13.9L23.35-13.9 16.95-30.3 10.35-13.9Z" opacity="1" transform="matrix(1,0,0,1,0,0)" fill="white" class="wordmark-text-0" id="SvgjsPath5243"></path></svg></g></svg></g></svg></g></svg></g><g transform="matrix(1,0,0,1,57.83006535211268,0)"><svg viewBox="0 0 187.11508056338027 322.50852251566647" height="322.50852251566647" width="187.11508056338027"><g><svg xmlns="http://www.w3.org/2000/svg" xml:space="preserve" viewBox="21.679106830508623 1 56.85827385947761 98" x="0" y="0" height="322.50852251566647" width="187.11508056338027" class="icon-icon-0" data-fill-palette-color="accent" id="SvgjsSvg5242"><path fill-rule="evenodd" d="M30.545 28.822c-1.165 7.217 0.33 14.85 6.5 19.041C30.758 19.81 45.756 8.664 59.646 1c-16.18 23.046 16.896 23.644 18.777 50.13C80.028 73.71 64.507 91.317 46.639 99c0.206-22.825-22.55-25.933-24.838-44.603-0.896-7.303 3.261-20.631 8.744-25.575" clip-rule="evenodd" fill="black"></path></svg></g></svg></g><g></g></svg></g><defs><mask></mask></defs></svg><rect width="146.57540722788818" height="327.2" fill="black" stroke="none" visibility="hidden"></rect></g></mask><linearGradient x1="0" x2="1" y1="0.578" y2="0.595" id="c4bdea20-8614-4c45-9dc4-f1b0f1ebdc52"><stop stop-color="#6ee2f5" offset="0"></stop><stop stop-color="#6454f0" offset="1"></stop></linearGradient><rect width="146.57540722788818" height="327.2" fill="url(#c4bdea20-8614-4c45-9dc4-f1b0f1ebdc52)" mask="url(#4d3c5a5d-936d-4a82-88fb-dd62e71f78e1)" data-fill-palette-color="primary"></rect><mask id="1c9a799d-59ef-445c-9d5e-b6f42bb50fde"><g id="SvgjsG5255"><svg viewBox="0 0 146.57540722788818 327.2" height="327.2" width="146.57540722788818"><g><svg viewBox="0 0 302.77521126760564 675.8845225156665" height="327.2" width="146.57540722788818"><g transform="matrix(1,0,0,1,0,348.68452251566646)"><svg viewBox="0 0 302.77521126760564 327.2" height="327.2" width="302.77521126760564"><g id="SvgjsG5254"><svg viewBox="0 0 302.77521126760564 327.2" height="327.2" width="302.77521126760564" id="SvgjsSvg5253"><g><svg viewBox="0 0 302.77521126760564 327.2" height="327.2" width="302.77521126760564"><g transform="matrix(1,0,0,1,0,0)"><svg width="302.77521126760564" viewBox="0.5 -35.5 32.85 35.5" height="327.2" data-palette-color="url(#c4bdea20-8614-4c45-9dc4-f1b0f1ebdc52)"></svg></g></svg></g></svg></g></svg></g><g transform="matrix(1,0,0,1,57.83006535211268,0)"><svg viewBox="0 0 187.11508056338027 322.50852251566647" height="322.50852251566647" width="187.11508056338027"><g><svg xmlns="http://www.w3.org/2000/svg" xml:space="preserve" viewBox="21.679106830508623 1 56.85827385947761 98" x="0" y="0" height="322.50852251566647" width="187.11508056338027" class="icon-icon-0" data-fill-palette-color="accent" id="SvgjsSvg5252"><path fill-rule="evenodd" d="M30.545 28.822c-1.165 7.217 0.33 14.85 6.5 19.041C30.758 19.81 45.756 8.664 59.646 1c-16.18 23.046 16.896 23.644 18.777 50.13C80.028 73.71 64.507 91.317 46.639 99c0.206-22.825-22.55-25.933-24.838-44.603-0.896-7.303 3.261-20.631 8.744-25.575" clip-rule="evenodd" fill="white"></path></svg></g></svg></g><g></g></svg></g><defs><mask></mask></defs><mask><g id="SvgjsG5251"><svg viewBox="0 0 146.57540722788818 327.2" height="327.2" width="146.57540722788818"><g><svg viewBox="0 0 302.77521126760564 675.8845225156665" height="327.2" width="146.57540722788818"><g transform="matrix(1,0,0,1,0,348.68452251566646)"><svg viewBox="0 0 302.77521126760564 327.2" height="327.2" width="302.77521126760564"><g id="SvgjsG5250"><svg viewBox="0 0 302.77521126760564 327.2" height="327.2" width="302.77521126760564" id="SvgjsSvg5249"><g><svg viewBox="0 0 302.77521126760564 327.2" height="327.2" width="302.77521126760564"><g transform="matrix(1,0,0,1,0,0)"><svg width="302.77521126760564" viewBox="0.5 -35.5 32.85 35.5" height="327.2" data-palette-color="url(#c4bdea20-8614-4c45-9dc4-f1b0f1ebdc52)"><path d="M0.5 0L15.05-35.5 18.85-35.5 33.35 0 28.55 0 24.35-10.4 9.45-10.4 5.3 0 0.5 0ZM10.35-13.9L23.35-13.9 16.95-30.3 10.35-13.9Z" opacity="1" transform="matrix(1,0,0,1,0,0)" fill="black" class="wordmark-text-0" id="SvgjsPath5248"></path></svg></g></svg></g></svg></g></svg></g><g transform="matrix(1,0,0,1,57.83006535211268,0)"><svg viewBox="0 0 187.11508056338027 322.50852251566647" height="322.50852251566647" width="187.11508056338027"><g><svg xmlns="http://www.w3.org/2000/svg" xml:space="preserve" viewBox="21.679106830508623 1 56.85827385947761 98" x="0" y="0" height="322.50852251566647" width="187.11508056338027" class="icon-icon-0" data-fill-palette-color="accent" id="SvgjsSvg5247"><path fill-rule="evenodd" d="M30.545 28.822c-1.165 7.217 0.33 14.85 6.5 19.041C30.758 19.81 45.756 8.664 59.646 1c-16.18 23.046 16.896 23.644 18.777 50.13C80.028 73.71 64.507 91.317 46.639 99c0.206-22.825-22.55-25.933-24.838-44.603-0.896-7.303 3.261-20.631 8.744-25.575" clip-rule="evenodd" fill="black"></path></svg></g></svg></g><g></g></svg></g><defs><mask></mask></defs></svg><rect width="146.57540722788818" height="327.2" fill="black" stroke="none" visibility="hidden"></rect></g></mask></svg><rect width="146.57540722788818" height="327.2" fill="black" stroke="none" visibility="hidden"></rect></g></mask><linearGradient x1="0" x2="1" y1="0.578" y2="0.595" id="4531a0c4-1965-47fa-b91e-92dff3aef9eb"><stop stop-color="#6ee2f5" offset="0"></stop><stop stop-color="#6454f0" offset="1"></stop></linearGradient><rect width="146.57540722788818" height="327.2" fill="url(#4531a0c4-1965-47fa-b91e-92dff3aef9eb)" mask="url(#1c9a799d-59ef-445c-9d5e-b6f42bb50fde)" data-fill-palette-color="accent"></rect></svg><rect width="146.57540722788818" height="327.2" fill="none" stroke="none" visibility="hidden"></rect></g></svg></g></svg>